HIERARCHY
ROOT Hips
{
	OFFSET 0.000000 0.000000 0.000000
	CHANNELS 6 Xposition Yposition Zposition Zrotation Yrotation Xrotation 
	JOINT LHipJoint
	{
		OFFSET 0.000000 0.000000 0.000000
		CHANNELS 3 Zrotation Yrotation Xrotation
		JOINT LeftUpLeg
		{
			OFFSET 1.363060 -1.794630 0.839290
			CHANNELS 3 Zrotation Yrotation Xrotation
			JOINT LeftLeg
			{
				OFFSET 2.448110 -6.726130 0.000000
				CHANNELS 3 Zrotation Yrotation Xrotation
				JOINT LeftFoot
				{
					OFFSET 2.562200 -7.039590 0.000000
					CHANNELS 3 Zrotation Yrotation Xrotation
					JOINT LeftToeBase
					{
						OFFSET 0.157640 -0.433110 2.322550
						CHANNELS 3 Zrotation Yrotation Xrotation
						End Site
						{
							OFFSET 0.000000 0.000000 0.000000
						}
					}
				}
			}
		}
	}
	JOINT RHipJoint
	{
		OFFSET 0.000000 0.000000 0.000000
		CHANNELS 3 Zrotation Yrotation Xrotation
		JOINT RightUpLeg
		{
			OFFSET -1.305520 -1.794630 0.839290
			CHANNELS 3 Zrotation Yrotation Xrotation
			JOINT RightLeg
			{
				OFFSET -2.542530 -6.985550 0.000000
				CHANNELS 3 Zrotation Yrotation Xrotation
				JOINT RightFoot
				{
					OFFSET -2.568260 -7.056230 0.000000
					CHANNELS 3 Zrotation Yrotation Xrotation
					JOINT RightToeBase
					{
						OFFSET -0.164730 -0.452590 2.363150
						CHANNELS 3 Zrotation Yrotation Xrotation
						End Site
						{
							OFFSET 0.000000 0.000000 0.000000
						}
					}
				}
			}
		}
	}
}
MOTION
Frames: 33
Frame Time: 0.008333
14.471410 12.741265 2.643565 101.474010 -88.736379 -17.862340 -8.534159 -1.471560 2.716819 -3.522405 -15.600904 -131.681472 0.193217 9.434338 82.308380 4.000465 5.350591 -33.803258 -3.279500 0.000000 -43.176901 9.435130 2.166576 3.777986 2.397262 8.998488 -132.877257 -0.224133 -11.217798 83.642912 -2.092402 1.858474 -30.985275 0.887600 -0.000000 -60.478801
14.441241 12.725136 2.642575 101.386171 -88.740530 -17.680558 -8.540669 -1.468809 2.741802 -3.493842 -15.601874 -131.761019 0.222903 9.449349 82.505634 4.032777 5.409901 -33.994259 -3.330600 -0.000000 -43.233800 9.442758 2.172695 3.806726 2.366537 9.002062 -132.930385 -0.245755 -11.227308 83.820208 -2.130440 1.828313 -31.254089 0.913600 -0.000000 -60.442200
14.409273 12.709437 2.641287 101.213544 -88.740576 -17.420571 -8.547733 -1.463515 2.770753 -3.470718 -15.606057 -131.822636 0.249946 9.462037 82.695238 4.065390 5.461524 -34.201012 -3.382700 0.000001 -43.265000 9.450389 2.179997 3.841069 2.327196 9.000008 -132.968305 -0.266436 -11.233505 83.994603 -2.174155 1.790933 -31.555001 0.943900 -0.000000 -60.359100
14.375834 12.693956 2.639733 100.928797 -88.739751 -17.054252 -8.555119 -1.456086 2.803769 -3.447479 -15.610626 -131.869976 0.275573 9.472219 82.880802 4.097525 5.504625 -34.420067 -3.434700 -0.000000 -43.282300 9.457995 2.190176 3.880566 2.276679 8.992864 -132.989271 -0.287832 -11.235877 84.168885 -2.222031 1.745662 -31.876109 0.978000 -0.000000 -60.249200
14.340750 12.678805 2.637952 100.488881 -88.740400 -16.542120 -8.562308 -1.446900 2.840504 -3.420743 -15.612579 -131.899312 0.300789 9.478764 83.063466 4.128511 5.539761 -34.647241 -3.485900 -0.000000 -43.301100 9.465297 2.204793 3.924390 2.214373 8.981323 -132.992745 -0.311241 -11.234427 84.345267 -2.272384 1.692663 -32.205691 1.015000 -0.000000 -60.132600
14.303883 12.664287 2.636024 99.854546 -88.745397 -15.849929 -8.568945 -1.436627 2.881027 -3.386368 -15.608691 -131.907124 0.326812 9.480362 83.243593 4.158369 5.570894 -34.877613 -3.536301 -0.000000 -43.339000 9.471707 2.224993 3.971351 2.141941 8.965763 -132.969673 -0.337509 -11.228093 84.522550 -2.323685 1.630464 -32.530667 1.054401 0.000000 -60.036000
14.265389 12.650624 2.634000 98.996046 -88.756917 -14.951655 -8.574855 -1.426292 2.925027 -3.341230 -15.595016 -131.886280 0.354962 9.475262 83.420966 4.187719 5.605145 -35.106243 -3.587100 0.000000 -43.413600 9.476430 2.251707 4.019974 2.061585 8.947573 -132.910968 -0.367437 -11.215702 84.699949 -2.375252 1.555514 -32.841041 1.096500 0.000000 -59.983000
14.224747 12.638273 2.631935 97.875415 -88.777361 -13.817195 -8.579615 -1.416771 2.971933 -3.282507 -15.568838 -131.830694 0.386809 9.461875 83.596271 4.217672 5.651457 -35.329225 -3.640200 -0.000000 -43.538200 9.478217 2.285770 4.068871 1.974938 8.928591 -132.810364 -0.401609 -11.196440 84.876607 -2.427410 1.462456 -33.131310 1.142300 -0.000000 -59.989900
14.182312 12.627507 2.629816 96.486207 -88.806902 -12.445203 -8.583266 -1.408907 3.021265 -3.209978 -15.527945 -131.731083 0.423437 9.438538 83.768488 4.249985 5.720826 -35.544005 -3.698700 -0.000000 -43.719600 9.475858 2.327684 4.116617 1.884668 8.909678 -132.655615 -0.440149 -11.168620 85.050462 -2.481506 1.344379 -33.401443 1.194000 0.000001 -60.064900
14.137651 12.618687 2.627643 94.814800 -88.845192 -10.828639 -8.585850 -1.402881 3.072925 -3.123451 -15.473098 -131.581532 0.465723 9.403995 83.936819 4.286705 5.823783 -35.750294 -3.766000 0.000000 -43.957399 9.468078 2.377641 4.162262 1.793114 8.891585 -132.439238 -0.482774 -11.131313 85.219781 -2.539825 1.193924 -33.657128 1.254400 0.000000 -60.201000
14.090793 12.612162 2.625298 92.886564 -88.890743 -8.998407 -8.587788 -1.399607 3.126122 -3.026468 -15.403112 -131.371580 0.513714 9.357412 84.099132 4.329593 5.968877 -35.949779 -3.845600 -0.000000 -44.244700 9.453471 2.434954 4.204997 1.702187 8.875889 -132.151031 -0.528689 -11.082808 85.381379 -2.605560 1.002997 -33.909620 1.327100 0.000001 -60.386200
14.041645 12.608427 2.622733 90.715359 -88.941308 -6.975410 -8.589504 -1.399571 3.179973 -2.924612 -15.318909 -131.089400 0.566620 9.298077 84.251610 4.379981 6.161291 -36.146096 -3.940100 0.000000 -44.567300 9.430711 2.498680 4.243772 1.615358 8.862719 -131.780329 -0.576542 -11.021832 85.531677 -2.681900 0.765477 -34.173489 1.415600 -0.000000 -60.594800
13.990170 12.607649 2.619765 88.400265 -88.987257 -4.859442 -8.591208 -1.402286 3.235232 -2.824547 -15.230669 -130.729803 0.622475 9.225990 84.388193 4.439231 6.403390 -36.343531 -4.052000 -0.000000 -44.904500 9.400608 2.566695 4.280160 1.530927 8.846145 -131.327374 -0.625145 -10.948194 85.667856 -2.771554 0.478118 -34.464123 1.522900 0.000000 -60.793400
13.936210 12.610347 2.616308 85.995425 -89.024090 -2.710190 -8.592939 -1.408390 3.291111 -2.733916 -15.140922 -130.281186 0.678955 9.141177 84.502663 4.507011 6.691429 -36.546791 -4.181499 0.000000 -45.235099 9.363293 2.636762 4.313694 1.452693 8.824064 -130.782732 -0.672523 -10.861134 85.784529 -2.876353 0.140223 -34.794990 1.651599 0.000000 -60.950099
13.879826 12.616972 2.612244 83.589126 -89.044842 -0.618627 -8.594305 -1.418008 3.347138 -2.661610 -15.055310 -129.733612 0.732814 9.043970 84.586985 4.582176 7.016905 -36.760411 -4.327500 0.000001 -45.538400 9.320372 2.706370 4.344914 1.381937 8.791267 -130.141315 -0.717033 -10.760544 85.876768 -2.996622 -0.245201 -35.174813 1.802900 -0.000001 -61.037600
13.821043 12.627775 2.607440 81.331425 -89.039803 1.266811 -8.594107 -1.430202 3.404525 -2.614533 -14.983958 -129.085755 0.780441 8.935169 84.632111 4.663075 7.368305 -36.986191 -4.487500 -0.000000 -45.797400 9.275749 2.772259 4.376738 1.316438 8.740270 -129.408726 -0.757372 -10.647657 85.939423 -3.130857 -0.670948 -35.604492 1.976100 0.000000 -61.036800
13.760118 12.643724 2.601735 79.256711 -89.008511 2.899935 -8.590819 -1.447976 3.456735 -2.605492 -14.918907 -128.313082 0.818594 8.815048 84.631820 4.745426 7.728652 -37.225886 -4.656800 0.000000 -46.003000 9.229815 2.833319 4.403608 1.264288 8.669365 -128.563508 -0.792068 -10.521684 85.966930 -3.275784 -1.127653 -36.079602 2.169100 -0.000000 -60.945400
13.696860 12.664727 2.595208 77.450047 -88.943034 4.206372 -8.584228 -1.467996 3.508322 -2.634599 -14.871991 -127.425103 0.844158 8.684024 84.575393 4.826979 8.084550 -37.474901 -4.830400 0.000000 -46.156100 9.187981 2.886526 4.430446 1.222229 8.570456 -127.618396 -0.819886 -10.385094 85.952131 -3.426292 -1.601339 -36.582665 2.376699 0.000000 -60.773800
13.631555 12.691423 2.587834 75.920169 -88.848929 5.171344 -8.573934 -1.488404 3.556858 -2.707322 -14.835292 -126.412501 0.855332 8.542612 84.457423 4.903758 8.421454 -37.727961 -5.002400 0.000000 -46.269400 9.151606 2.933100 4.455227 1.193719 8.444833 -126.566930 -0.839898 -10.238928 85.889980 -3.576426 -2.078453 -37.092484 2.592700 -0.000001 -60.551500
13.564053 12.724017 2.579632 74.648268 -88.728199 5.814630 -8.560719 -1.508356 3.601912 -2.824074 -14.804366 -125.276741 0.851167 8.391912 84.273793 4.972565 8.728392 -37.976206 -5.166800 -0.000000 -46.365100 9.122048 2.971967 4.476868 1.181320 8.292806 -125.406801 -0.851513 -10.084046 85.775334 -3.720083 -2.546157 -37.583451 2.809400 0.000000 -60.318200
13.494364 12.763361 2.570753 73.580560 -88.586783 6.186401 -8.546191 -1.526480 3.642842 -2.987300 -14.769907 -124.004102 0.830081 8.231101 84.012496 5.030760 8.998412 -38.209097 -5.318701 0.000000 -46.470700 9.099631 3.001779 4.493480 1.192797 8.116882 -124.126744 -0.852262 -9.920490 85.595166 -3.851592 -2.991697 -38.030230 3.018599 -0.000000 -60.120400
13.421534 12.810553 2.561629 72.584231 -88.434304 6.415986 -8.533635 -1.538779 3.683699 -3.192383 -14.722549 -122.587174 0.791054 8.058743 83.656923 5.077651 9.231202 -38.416290 -5.454600 0.000000 -46.613800 9.083827 3.020406 4.504876 1.241659 7.922807 -122.710805 -0.837673 -9.747562 85.328524 -3.966694 -3.403710 -38.410415 3.212299 -0.000000 -59.996200
13.347739 12.864432 2.551538 71.782299 -88.273619 6.376269 -8.520316 -1.551491 3.710530 -3.442297 -14.649052 -121.033960 0.738460 7.879969 83.232051 5.111663 9.430631 -38.589098 -5.573800 0.000000 -46.818200 9.073457 3.031430 4.502079 1.316268 7.713914 -121.169556 -0.814145 -9.566642 84.998104 -4.064101 -3.787769 -38.713701 3.389000 -0.000001 -59.984200
13.271496 12.925125 2.541374 70.936892 -88.120672 6.321118 -8.512757 -1.556164 3.737244 -3.716336 -14.543493 -119.361873 0.672921 7.693030 82.719578 5.135991 9.608248 -38.719565 -5.677500 0.000000 -47.099600 9.067601 3.031044 4.492412 1.431483 7.504915 -119.507365 -0.775593 -9.377378 84.577932 -4.145275 -4.142261 -38.933780 3.546800 -0.000000 -60.086101
13.193043 12.992849 2.530908 70.070473 -87.980336 6.223855 -8.510797 -1.554119 3.760068 -4.014443 -14.396012 -117.566862 0.595126 7.498913 82.116730 5.152511 9.774251 -38.805952 -5.768900 -0.000000 -47.456100 9.065141 3.017598 4.473646 1.589883 7.301650 -117.719036 -0.721529 -9.178543 84.060994 -4.213625 -4.475454 -39.079296 3.688700 0.000000 -60.295900
13.112210 13.067641 2.520295 69.141572 -87.858648 6.128716 -8.515416 -1.543507 3.779452 -4.331156 -14.201324 -115.650235 0.505621 7.297469 81.416583 5.164357 9.940343 -38.851031 -5.853000 -0.000000 -47.870599 9.064998 2.990114 4.445200 1.798050 7.107650 -115.800154 -0.649723 -8.969319 83.435662 -4.274131 -4.795626 -39.168329 3.820300 -0.000000 -60.579500
13.028807 13.149399 2.509448 68.157423 -87.758785 6.034846 -8.526973 -1.522848 3.796971 -4.662119 -13.957225 -113.619020 0.404084 7.088994 80.610139 5.174885 10.115738 -38.860606 -5.934300 0.000000 -48.312800 9.066633 2.946181 4.409971 2.056073 6.926816 -113.755609 -0.558501 -8.748535 82.689275 -4.333246 -5.113607 -39.225590 3.949300 0.000000 -60.887600
12.942559 13.238196 2.498301 67.137387 -87.680792 5.928176 -8.545184 -1.490210 3.813495 -5.006645 -13.664382 -111.473731 0.289065 6.872877 79.684194 5.186802 10.304941 -38.843630 -6.017100 0.000000 -48.741100 9.069789 2.884222 4.369956 2.364180 6.756733 -111.585719 -0.445724 -8.515152 81.807329 -4.396625 -5.436173 -39.278699 4.082699 -0.000000 -61.158000
12.852985 13.334187 2.486775 66.123425 -87.622596 5.775479 -8.569385 -1.443463 3.830565 -5.365601 -13.326362 -109.215333 0.158273 6.647947 78.621760 5.201803 10.506471 -38.809114 -6.103100 -0.000000 -49.107701 9.074765 2.802597 4.328267 2.718961 6.591293 -109.292959 -0.309359 -8.268158 80.773467 -4.468094 -5.764531 -39.350859 4.225400 0.000000 -61.326900
12.759734 13.437892 2.474793 65.153718 -87.580131 5.541224 -8.598450 -1.380560 3.848585 -5.741857 -12.946132 -106.836662 0.008988 6.412227 77.402777 5.219456 10.711477 -38.762863 -6.190500 0.000000 -49.365700 9.081799 2.700697 4.286163 3.117435 6.419480 -106.873270 -0.147363 -8.006561 79.569941 -4.548214 -6.091207 -39.456118 4.377400 -0.000001 -61.338100
12.662389 13.549851 2.462132 64.320501 -87.546975 5.140334 -8.630493 -1.300071 3.867737 -6.139936 -12.529176 -104.335200 -0.161548 6.163610 76.006031 5.237381 10.904467 -38.703013 -6.273400 0.000000 -49.481900 9.092040 2.578139 4.246014 3.548650 6.227675 -104.330533 0.040840 -7.729775 78.180355 -4.633584 -6.400668 -39.590668 4.532600 -0.000000 -61.164700
12.560633 13.671058 2.448800 63.665383 -87.518175 4.530293 -8.664108 -1.200792 3.886854 -6.562946 -12.076655 -101.698643 -0.355181 5.899134 74.409509 5.250497 11.064956 -38.617133 -6.341099 -0.000000 -49.444900 9.106131 2.435935 4.206397 4.006438 5.999053 -101.657356 0.255715 -7.437124 76.588057 -4.715747 -6.666677 -39.729685 4.676500 -0.000000 -60.813300
12.454044 13.802387 2.434735 63.246659 -87.488949 3.656322 -8.698062 -1.082655 3.903682 -7.012066 -11.588321 -98.917797 -0.572314 5.615908 72.594038 5.251548 11.170357 -38.477992 -6.377900 0.000000 -49.280000 9.125184 2.275838 4.164998 4.480625 5.716675 -98.851224 0.495964 -7.128190 74.780167 -4.781901 -6.857356 -39.823407 4.786800 -0.000001 -60.343400
